<?xml version="1.0" encoding="UTF-8" standalone="no"?>
<!-- Created with Inkscape (http://www.inkscape.org/) -->

<svg
   width="116.297"
   height="142.36763"
   viewBox="0 0 30.770249 37.668102"
   version="1.1"
   id="svg5"
   xmlns="http://www.w3.org/2000/svg"
   xmlns:svg="http://www.w3.org/2000/svg">
  <defs
     id="defs2">
    <rect
       x="107.90008"
       y="240.52635"
       width="702.3075"
       height="128.86803"
       id="rect113" />
  </defs>
  <g
     id="layer1"
     transform="translate(-7.5964207,-5.4885055)"
     style="display:inline">
    <path
       id="path4089"
       style="fill:#004f49;fill-opacity:1;stroke-width:0.68623;stroke-dasharray:none"
       d="M 19.39962,10.326825 C 11.669921,12.305058 7.0074287,20.174913 8.9856707,27.90461 c 0.546102,2.110113 1.5625853,4.069315 2.9733073,5.73084 L 19.600654,25.187951 12.381687,27.035478 38.366585,5.4885055 29.258068,11.311677 15.554071,20.072674 27.119727,10.482439 C 24.608144,9.7310785 21.93944,9.6772855 19.39962,10.326825 Z m 14.613267,4.670206 -7.650195,8.460333 7.218696,-1.847458 -25.9849673,21.546701 9.1246283,-5.83334 1.416536,-0.905526 12.270407,-7.844486 -11.555892,9.582267 c 2.508174,0.75219 5.173632,0.808545 7.711355,0.163036 7.729699,-1.978231 12.392191,-9.848087 10.413949,-17.577783 -0.541692,-2.113903 -1.555233,-4.07763 -2.964517,-5.743744 z" />
  </g>
</svg>
