<?xml version="1.0" encoding="UTF-8" standalone="no"?>
<!-- Created with Inkscape (http://www.inkscape.org/) -->

<svg
   width="630"
   height="150"
   viewBox="0 0 166.6875 39.6875"
   version="1.1"
   id="svg5"
   inkscape:export-filename="logo.svg"
   inkscape:export-xdpi="300"
   inkscape:export-ydpi="300"
   sodipodi:docname="logo"
   inkscape:version="1.2.2 (732a01da63, 2022-12-09, custom)"
   xmlns:inkscape="http://www.inkscape.org/namespaces/inkscape"
   xmlns:sodipodi="http://sodipodi.sourceforge.net/DTD/sodipodi-0.dtd"
   xmlns="http://www.w3.org/2000/svg"
   xmlns:svg="http://www.w3.org/2000/svg">
  <sodipodi:namedview
     id="namedview7"
     pagecolor="#ffffff"
     bordercolor="#000000"
     borderopacity="0.25"
     inkscape:showpageshadow="true"
     inkscape:pageopacity="0.0"
     inkscape:pagecheckerboard="false"
     inkscape:deskcolor="#d1d1d1"
     inkscape:document-units="mm"
     showgrid="false"
     inkscape:zoom="0.7429714"
     inkscape:cx="802.18431"
     inkscape:cy="122.48116"
     inkscape:window-width="1920"
     inkscape:window-height="1010"
     inkscape:window-x="0"
     inkscape:window-y="34"
     inkscape:window-maximized="1"
     inkscape:current-layer="layer1"
     showguides="true"
     showborder="true"
     borderlayer="true"
     shape-rendering="auto">
    <inkscape:grid
       type="xygrid"
       id="grid5920"
       originx="-7.5964205"
       originy="-5.4885055" />
  </sodipodi:namedview>
  <defs
     id="defs2">
    <rect
       x="107.90008"
       y="240.52635"
       width="702.3075"
       height="128.86803"
       id="rect113" />
  </defs>
  <g
     inkscape:label="레이어 1"
     inkscape:groupmode="layer"
     id="layer1"
     transform="translate(-7.5964207,-5.4885055)"
     style="display:inline">
    <path
       id="text111"
       style="font-size:133.333px;line-height:0;white-space:pre;shape-inside:url(#rect113);shape-padding:2.38983;display:inline;fill:#004f49;fill-opacity:1;stroke-width:0.522617;stroke-dasharray:none"
       inkscape:transform-center-x="-0.067236449"
       inkscape:transform-center-y="-1.1655588"
       d="M 39.171755,6.4982628 30.063267,12.32168 16.359193,21.082387 27.924895,11.492275 c -2.51158,-0.751362 -5.180124,-0.805086 -7.719942,-0.155547 -7.729691,1.97823 -12.3925908,9.848048 -10.4143511,17.577739 0.5461021,2.11011 1.5627411,4.069392 2.9734621,5.730916 l 7.641911,-8.447547 -7.219198,1.847432 z M 154.61432,15.977787 c -0.2966,0 -0.63967,0.0099 -1.02888,0.02946 -0.38921,0.01958 -0.78944,0.04869 -1.20147,0.08785 -0.40666,0.01958 -0.8187,0.05908 -1.23611,0.117822 -0.39996,0.05874 -0.76773,0.126833 -1.10329,0.205156 l -4.92838,17.945675 h 3.21893 l 1.68568,-6.138644 h 1.15135 c 2.09362,0 3.83936,-0.479746 5.23689,-1.439189 1.42036,-0.979024 2.42877,-2.55496 3.02566,-4.728393 0.5915,-2.153854 0.4496,-3.700681 -0.42633,-4.640544 -0.87056,-0.959444 -2.33532,-1.43919 -4.39405,-1.43919 z M 34.818015,16.006728 27.167836,24.467192 34.386517,22.61976 8.4015397,44.166248 17.526047,38.333013 18.942498,37.427642 31.213067,29.583159 19.657183,39.16552 c 2.508172,0.752189 5.173437,0.808288 7.711158,0.162781 C 35.098032,37.350072 39.760933,29.48025 37.782692,21.750562 37.241,19.636662 36.227298,17.67284 34.818015,16.006728 Z m 10.845849,0.176732 -4.992976,18.180287 h 3.218924 l 2.137855,-7.782988 h 5.862174 l 0.82269,-2.9962 h -5.862176 l 1.209746,-4.405416 h 6.69985 L 55.58264,16.18346 Z m 94.788526,0 c -1.4587,2.643365 -2.98661,5.443352 -4.58369,8.400003 -1.59171,2.937073 -3.26349,6.197056 -5.0152,9.780284 h 3.34966 l 1.88619,-4.199744 h 4.31809 l -0.3943,4.199744 h 3.45406 c 0.24184,-3.485326 0.388,-6.716199 0.4377,-9.692433 0.0725,-2.995813 0.0906,-5.824908 0.0543,-8.487854 z m 22.74177,0 -0.82269,2.995683 h 3.5326 l -3.34708,12.188921 h -3.53312 l -0.82269,2.995683 h 10.28516 l 0.82269,-2.995683 h -3.50676 l 3.34708,-12.188921 h 3.50676 l 0.82269,-2.995683 z m -86.136346,0.322978 -3.380155,0.58756 -0.95188,3.465422 h -2.800347 l -0.822687,2.996201 h 2.800344 l -1.556492,5.668387 c -0.317263,1.155249 -0.470838,2.094988 -0.460438,2.819467 0.01578,0.704897 0.170325,1.25325 0.464054,1.644859 0.29373,0.391612 0.709883,0.655654 1.247986,0.792717 0.538103,0.137063 1.181968,0.205672 1.932181,0.205672 0.645533,0 1.324912,-0.05873 2.037603,-0.176216 0.730136,-0.117482 1.429588,-0.312918 2.098062,-0.587045 l 0.409795,-3.113505 c -0.339614,0.156645 -0.653472,0.283987 -0.942061,0.381889 -0.271143,0.0979 -0.536982,0.176388 -0.797369,0.235128 -0.237563,0.03916 -0.489979,0.06827 -0.757059,0.08785 -0.249633,0.01958 -0.522992,0.02946 -0.819588,0.02946 -0.279148,0 -0.523645,-0.02962 -0.734323,-0.08837 -0.210676,-0.05874 -0.370415,-0.176207 -0.479039,-0.352432 -0.108626,-0.176225 -0.163652,-0.421034 -0.164847,-0.734323 -0.0012,-0.313286 0.06793,-0.724423 0.207737,-1.233515 l 1.532724,-5.580021 h 5.155757 l 0.82269,-2.996201 h -5.155758 z m 13.084989,0 -3.380155,0.58756 -0.95188,3.465422 H 83.01094 l -0.823206,2.996201 h 2.800344 l -1.556492,5.668387 c -0.317263,1.155249 -0.470837,2.094988 -0.460438,2.819467 0.01578,0.704897 0.170325,1.25325 0.464054,1.644859 0.29373,0.391612 0.709883,0.655654 1.247986,0.792717 0.538105,0.137063 1.182486,0.205672 1.9327,0.205672 0.645531,0 1.324395,-0.05873 2.037084,-0.176216 0.730136,-0.117482 1.429588,-0.312918 2.098064,-0.587045 l 0.409793,-3.113505 c -0.339614,0.156645 -0.653472,0.283987 -0.942061,0.381889 -0.271143,0.0979 -0.536979,0.176388 -0.797367,0.235128 -0.237565,0.03916 -0.489981,0.06827 -0.757061,0.08785 -0.249633,0.01958 -0.522475,0.02946 -0.81907,0.02946 -0.27915,0 -0.524162,-0.02962 -0.734838,-0.08837 -0.210679,-0.05874 -0.370416,-0.176207 -0.479042,-0.352432 -0.108625,-0.176225 -0.163651,-0.421034 -0.164847,-0.734323 -0.0012,-0.313286 0.06844,-0.724423 0.208254,-1.233515 l 1.532207,-5.580021 h 5.155758 l 0.822689,-2.996201 h -5.155757 z m 39.255487,0 -3.38016,0.58756 -0.95188,3.465422 h -2.80034 l -0.82269,2.996201 h 2.80034 l -1.55701,5.668387 c -0.31726,1.155249 -0.47032,2.094988 -0.45992,2.819467 0.0158,0.704897 0.17033,1.25325 0.46406,1.644859 0.29373,0.391612 0.70936,0.655654 1.24747,0.792717 0.5381,0.137063 1.18248,0.205672 1.9327,0.205672 0.64553,0 1.32491,-0.05873 2.0376,-0.176216 0.73013,-0.117482 1.42907,-0.312918 2.09754,-0.587045 l 0.41031,-3.113505 c -0.33961,0.156645 -0.65399,0.283987 -0.94257,0.381889 -0.27115,0.0979 -0.53647,0.176388 -0.79685,0.235128 -0.23757,0.03916 -0.48998,0.06827 -0.75706,0.08785 -0.24964,0.01958 -0.523,0.02946 -0.81959,0.02946 -0.27915,0 -0.52416,-0.02962 -0.73484,-0.08837 -0.21068,-0.05874 -0.3699,-0.176207 -0.47853,-0.352432 -0.10862,-0.176225 -0.16365,-0.421034 -0.16484,-0.734323 -0.001,-0.313286 0.0679,-0.724423 0.20774,-1.233515 l 1.53272,-5.580021 h 5.15524 l 0.82269,-2.996201 h -5.15524 z m 24.71942,2.613795 c 0.85489,0 1.47342,0.225576 1.8557,0.675926 0.4051,0.430771 0.46246,1.174561 0.17208,2.231906 -0.30651,1.116088 -0.78569,1.909252 -1.43815,2.379182 -0.64709,0.450352 -1.48573,0.675411 -2.51509,0.675411 h -1.30845 l 1.61334,-5.874059 c 0.20267,-0.03916 0.46949,-0.05891 0.80098,-0.05891 0.35432,-0.01958 0.62767,-0.02946 0.81959,-0.02946 z m -12.95838,0.58756 c -0.0137,0.685317 -0.0368,1.341264 -0.0693,1.967838 -0.01,0.606996 -0.0371,1.214084 -0.0816,1.821078 -0.0217,0.587415 -0.0635,1.184628 -0.12557,1.791621 -0.062,0.606996 -0.12928,1.233317 -0.20206,1.879472 h -3.16673 c 0.28213,-0.646155 0.55906,-1.272476 0.83044,-1.879472 0.28883,-0.606993 0.5749,-1.204206 0.85835,-1.791621 l 0.91881,-1.821078 c 0.32909,-0.626574 0.67498,-1.282521 1.03766,-1.967838 z m -78.883042,0.499195 c -0.785108,0 -1.563302,0.06861 -2.333709,0.205672 -0.765031,0.117482 -1.369546,0.2547 -1.813842,0.411344 l -0.353466,2.907833 c 0.386577,-0.137064 0.872607,-0.254531 1.45779,-0.352433 0.602634,-0.0979 1.20889,-0.147277 1.819529,-0.147277 0.942127,0 1.540464,0.234934 1.795238,0.704866 0.260152,0.45035 0.296212,1.018455 0.108005,1.703772 l -0.120923,0.440282 c -0.602514,-0.156644 -1.322629,-0.23461 -2.160076,-0.23461 -0.662978,0 -1.320897,0.07797 -1.974555,0.23461 -0.64828,0.137064 -1.253948,0.371998 -1.816426,0.704867 -0.562481,0.332869 -1.058569,0.77363 -1.488282,1.321883 -0.429715,0.548253 -0.754665,1.22395 -0.975135,2.02675 -0.231226,0.841961 -0.305661,1.556641 -0.222726,2.144056 0.08831,0.567832 0.308461,1.037703 0.659908,1.409731 0.356827,0.35245 0.827767,0.607135 1.412834,0.763779 0.602514,0.156644 1.296421,0.23461 2.081527,0.23461 1.151491,0 2.210917,-0.07797 3.178617,-0.23461 0.967701,-0.156644 1.703257,-0.293862 2.206584,-0.411344 l 2.25826,-8.223788 c 0.236603,-0.861542 0.361949,-1.634956 0.375688,-2.320272 0.01912,-0.704898 -0.107601,-1.292234 -0.379822,-1.762166 -0.266845,-0.489511 -0.705161,-0.861665 -1.315681,-1.116211 -0.587697,-0.274127 -1.387423,-0.411344 -2.399337,-0.411344 z m 39.595002,0 c -0.73277,0 -1.49089,0.156968 -2.2748,0.470256 -0.783909,0.313286 -1.532416,0.783157 -2.245341,1.409731 -0.707549,0.606996 -1.353125,1.370534 -1.937349,2.290816 -0.584226,0.920284 -1.043265,1.987366 -1.37666,3.201355 -0.322641,1.17483 -0.447751,2.202929 -0.375689,3.084051 0.07206,0.881121 0.312357,1.624911 0.721404,2.231905 0.431871,0.587415 1.014768,1.03805 1.74873,1.351339 0.756787,0.293707 1.658969,0.440282 2.705777,0.440282 0.785108,0 1.512748,-0.07797 2.183848,-0.23461 0.66573,-0.137064 1.3075,-0.313264 1.92495,-0.528651 l 0.40204,-3.084049 c -0.4443,0.156645 -0.98436,0.313095 -1.62057,0.469739 -0.61877,0.156644 -1.251,0.235128 -1.89653,0.235128 -1.046808,0 -1.831726,-0.254685 -2.354894,-0.763779 -0.51779,-0.528672 -0.653018,-1.243352 -0.405661,-2.144053 h 7.981945 c 0.0605,-0.156645 0.12543,-0.361955 0.19534,-0.616501 0.0874,-0.254546 0.16336,-0.499356 0.22789,-0.734321 0.63452,-2.310498 0.6446,-4.063152 0.0305,-5.257561 -0.60874,-1.213989 -1.82045,-1.821077 -3.63492,-1.821077 z m 13.45189,0 c -0.92468,0 -1.75089,0.117467 -2.4784,0.352432 -0.72213,0.215386 -1.35777,0.528805 -1.90686,0.939995 -0.52627,0.391609 -0.96682,0.851605 -1.32137,1.380277 -0.33172,0.509092 -0.57817,1.057447 -0.73949,1.644862 -0.19896,0.724478 -0.23476,1.331564 -0.10749,1.821077 0.13265,0.469931 0.35656,0.861317 0.6718,1.174606 0.31524,0.313288 0.68736,0.577848 1.11672,0.793232 0.43474,0.195806 0.86645,0.372007 1.2945,0.528651 0.29922,0.117482 0.58109,0.234949 0.84543,0.352432 0.28178,0.117482 0.51725,0.244827 0.70641,0.38189 0.21199,0.117483 0.35467,0.264058 0.4284,0.440283 0.0912,0.176225 0.10194,0.391926 0.032,0.646472 -0.10755,0.39161 -0.38958,0.655652 -0.84594,0.792715 -0.45099,0.117485 -1.06905,0.176219 -1.85416,0.176219 -0.71531,0 -1.38978,-0.117468 -2.02313,-0.352435 -0.61589,-0.234965 -1.19167,-0.489134 -1.72702,-0.763261 l -1.32809,3.025139 c 0.39447,0.215384 0.92963,0.460196 1.60456,0.734323 0.67493,0.274126 1.54437,0.410826 2.60862,0.410826 1.04681,0 1.95715,-0.107592 2.73162,-0.322976 0.77447,-0.215387 1.43105,-0.509054 1.96939,-0.881085 0.55578,-0.372029 0.99946,-0.812789 1.33118,-1.321883 0.33173,-0.509092 0.5758,-1.047571 0.73174,-1.615403 0.19896,-0.724479 0.23476,-1.331049 0.10749,-1.820563 -0.12189,-0.509091 -0.34945,-0.920229 -0.68213,-1.233515 -0.30986,-0.332869 -0.68801,-0.607304 -1.13482,-0.82269 -0.4468,-0.215385 -0.88164,-0.411336 -1.30431,-0.587561 -0.29922,-0.117482 -0.58109,-0.234949 -0.84543,-0.352432 -0.2415,-0.137063 -0.45678,-0.273765 -0.64595,-0.410829 -0.17172,-0.137063 -0.30549,-0.284156 -0.40204,-0.4408 -0.0737,-0.176223 -0.0814,-0.372176 -0.0222,-0.58756 0.0699,-0.254546 0.27406,-0.489481 0.61236,-0.704867 0.36113,-0.234965 0.95199,-0.352432 1.77199,-0.352432 0.7851,0 1.45905,0.117467 2.02261,0.352432 0.56894,0.215386 0.98861,0.372352 1.25832,0.470256 l 1.33584,-3.054595 c -0.43605,-0.254546 -0.98411,-0.450497 -1.64434,-0.58756 -0.64279,-0.137064 -1.36528,-0.205672 -2.16783,-0.205672 z m -14.23014,3.025139 c 0.43617,0 0.77861,0.08836 1.02681,0.264582 0.25358,0.156644 0.43837,0.37183 0.55501,0.645956 0.11663,0.274127 0.17027,0.587545 0.16071,0.939993 -0.004,0.332869 -0.0575,0.685271 -0.15968,1.057301 h -4.920116 c 0.137064,-0.37203 0.306509,-0.734307 0.507981,-1.086755 0.21892,-0.35245 0.461957,-0.665868 0.729153,-0.939995 0.284646,-0.274126 0.596763,-0.489312 0.936379,-0.645956 0.357063,-0.156642 0.745033,-0.235126 1.163753,-0.235126 z m -40.457479,5.140254 c 0.244255,0 0.509459,0.01923 0.795299,0.05839 0.29122,0.01958 0.536233,0.04921 0.734839,0.08837 l -0.871263,3.171899 c -0.25501,0.03916 -0.550936,0.06879 -0.887802,0.08837 h -1.020609 c -0.66298,0 -1.16892,-0.127342 -1.517736,-0.38189 -0.343442,-0.274127 -0.429425,-0.724763 -0.257351,-1.351337 0.09679,-0.35245 0.24466,-0.636243 0.443386,-0.851629 0.198725,-0.215384 0.427706,-0.38171 0.686779,-0.499195 0.276519,-0.117482 0.577474,-0.195966 0.90227,-0.235126 0.330174,-0.05874 0.660699,-0.08785 0.992188,-0.08785 z" />
  </g>
</svg>
